<svg xmlns="http://www.w3.org/2000/svg" viewBox="0 0 240 240" role="img" aria-labelledby="title desc"><title id="title">Ambulatório Inteligente</title><desc id="desc">Símbolo de cuidado humanizado formado por cruz, coração e duas pessoas</desc><defs><linearGradient id="a"><stop stop-color="#85965b"/><stop offset="1" stop-color="#4f6849"/></linearGradient><linearGradient id="b"><stop stop-color="#efc56d"/><stop offset="1" stop-color="#d99a20"/></linearGradient></defs><g fill="none" stroke-linecap="round" stroke-linejoin="round"><path d="M91 24c18-8 39-8 58 0l-9 49c-13-5-27-5-40 0zM35 87c8-18 23-33 41-41l33 39c-12 6-22 16-28 28zM35 153c8 18 23 33 41 41l33-39c-12-6-22-16-28-28z" stroke="url(#a)" stroke-width="13"/><path d="M205 87c-8-18-23-33-41-41l-33 39c12 6 22 16 28 28zM205 153c-8 18-23 33-41 41l-33-39c12-6 22-16 28-28z" stroke="url(#b)" stroke-width="13"/></g><path d="M120 194c-11-13-50-43-50-79 0-25 17-44 40-44 12 0 23 6 30 16 7-10 18-16 30-16 23 0 40 19 40 44 0 36-39 66-50 79l-20 20z" fill="#fffdf8" stroke="#ead5ab" stroke-width="7"/><circle cx="102" cy="108" r="13" fill="url(#a)"/><circle cx="158" cy="108" r="13" fill="url(#b)"/><path d="M87 156c14-1 28-11 36-23 5 12 16 20 30 20 9 0 17-3 23-9-5 20-23 34-44 34-20 0-37-9-45-22z" fill="url(#a)"/><path d="M145 132c9 9 19 13 30 11-4 13-14 23-27 27" fill="none" stroke="url(#b)" stroke-width="12" stroke-linecap="round"/></svg>